<svg xmlns="http://www.w3.org/2000/svg" viewBox="0 0 900 550" font-family="Inter, Arial, sans-serif">
<rect width="900" height="550" rx="18" fill="#0f1a24"/>
<text x="450" y="42" text-anchor="middle" fill="#e8d5b0" font-size="22" font-weight="700">VCF 9 — Construct Hierarchy</text>
<rect x="320" y="75" width="260" height="62" rx="10" fill="#1a2a38" stroke="#6b3a8b" stroke-width="3"/>
<text x="450" y="103" text-anchor="middle" fill="#fff" font-size="16" font-weight="700">Private Cloud</text>
<text x="450" y="123" text-anchor="middle" fill="#e8d5b0" font-size="13">السَّحابة الخاصّة</text>
<line x1="450" y1="137" x2="450" y2="157" stroke="#e8d5b0" stroke-width="1.5" stroke-dasharray="4,3"/>
<rect x="270" y="157" width="360" height="62" rx="10" fill="#1a2a38" stroke="#0d7377" stroke-width="3"/>
<text x="450" y="185" text-anchor="middle" fill="#fff" font-size="16" font-weight="700">Fleet</text>
<text x="450" y="205" text-anchor="middle" fill="#e8d5b0" font-size="13">الأُسطول</text>
<line x1="450" y1="219" x2="450" y2="239" stroke="#e8d5b0" stroke-width="1.5" stroke-dasharray="4,3"/>
<rect x="220" y="239" width="460" height="62" rx="10" fill="#1a2a38" stroke="#b8860b" stroke-width="3"/>
<text x="450" y="267" text-anchor="middle" fill="#fff" font-size="16" font-weight="700">Instance</text>
<text x="450" y="287" text-anchor="middle" fill="#e8d5b0" font-size="13">المَثيل</text>
<line x1="450" y1="301" x2="450" y2="321" stroke="#e8d5b0" stroke-width="1.5" stroke-dasharray="4,3"/>
<rect x="170" y="321" width="560" height="62" rx="10" fill="#1a2a38" stroke="#556b2f" stroke-width="3"/>
<text x="450" y="349" text-anchor="middle" fill="#fff" font-size="16" font-weight="700">Domain</text>
<text x="450" y="369" text-anchor="middle" fill="#e8d5b0" font-size="13">النِّطاق</text>
<line x1="450" y1="383" x2="450" y2="403" stroke="#e8d5b0" stroke-width="1.5" stroke-dasharray="4,3"/>
<rect x="120" y="403" width="660" height="62" rx="10" fill="#1a2a38" stroke="#8b3a3a" stroke-width="3"/>
<text x="450" y="431" text-anchor="middle" fill="#fff" font-size="16" font-weight="700">Cluster</text>
<text x="450" y="451" text-anchor="middle" fill="#e8d5b0" font-size="13">الكَتَلة</text>
</svg>