<svg xmlns="http://www.w3.org/2000/svg" viewBox="0 0 900 500" font-family="Inter, Arial, sans-serif">
<rect width="900" height="500" rx="18" fill="#0f1a24"/>
<text x="450" y="42" text-anchor="middle" fill="#e8d5b0" font-size="22" font-weight="700">Capability Map — Private Cloud</text>
<rect x="43" y="70" width="190" height="44" rx="8" fill="#0d7377"/>
<text x="138" y="98" text-anchor="middle" fill="#fff" font-size="15" font-weight="700">Build</text>
<rect x="43" y="130" width="190" height="46" rx="8" fill="#1a2a38" stroke="#0d7377" stroke-width="2"/>
<text x="138" y="158" text-anchor="middle" fill="#e8d5b0" font-size="12">SDDC Manager</text>
<rect x="43" y="186" width="190" height="46" rx="8" fill="#1a2a38" stroke="#0d7377" stroke-width="2"/>
<text x="138" y="214" text-anchor="middle" fill="#e8d5b0" font-size="12">Fleet Manager</text>
<rect x="43" y="242" width="190" height="46" rx="8" fill="#1a2a38" stroke="#0d7377" stroke-width="2"/>
<text x="138" y="270" text-anchor="middle" fill="#e8d5b0" font-size="12">Image Mgmt</text>
<rect x="43" y="298" width="190" height="46" rx="8" fill="#1a2a38" stroke="#0d7377" stroke-width="2"/>
<text x="138" y="326" text-anchor="middle" fill="#e8d5b0" font-size="12">Host Commission</text>
<rect x="251" y="70" width="190" height="44" rx="8" fill="#b8860b"/>
<text x="346" y="98" text-anchor="middle" fill="#fff" font-size="15" font-weight="700">Operate</text>
<rect x="251" y="130" width="190" height="46" rx="8" fill="#1a2a38" stroke="#b8860b" stroke-width="2"/>
<text x="346" y="158" text-anchor="middle" fill="#e8d5b0" font-size="12">VCF Operations</text>
<rect x="251" y="186" width="190" height="46" rx="8" fill="#1a2a38" stroke="#b8860b" stroke-width="2"/>
<text x="346" y="214" text-anchor="middle" fill="#e8d5b0" font-size="12">Compliance</text>
<rect x="251" y="242" width="190" height="46" rx="8" fill="#1a2a38" stroke="#b8860b" stroke-width="2"/>
<text x="346" y="270" text-anchor="middle" fill="#e8d5b0" font-size="12">Logging</text>
<rect x="251" y="298" width="190" height="46" rx="8" fill="#1a2a38" stroke="#b8860b" stroke-width="2"/>
<text x="346" y="326" text-anchor="middle" fill="#e8d5b0" font-size="12">Cost Mgmt</text>
<rect x="459" y="70" width="190" height="44" rx="8" fill="#556b2f"/>
<text x="554" y="98" text-anchor="middle" fill="#fff" font-size="15" font-weight="700">Consume</text>
<rect x="459" y="130" width="190" height="46" rx="8" fill="#1a2a38" stroke="#556b2f" stroke-width="2"/>
<text x="554" y="158" text-anchor="middle" fill="#e8d5b0" font-size="12">VCF Automation</text>
<rect x="459" y="186" width="190" height="46" rx="8" fill="#1a2a38" stroke="#556b2f" stroke-width="2"/>
<text x="554" y="214" text-anchor="middle" fill="#e8d5b0" font-size="12">Catalog</text>
<rect x="459" y="242" width="190" height="46" rx="8" fill="#1a2a38" stroke="#556b2f" stroke-width="2"/>
<text x="554" y="270" text-anchor="middle" fill="#e8d5b0" font-size="12">VPCs</text>
<rect x="459" y="298" width="190" height="46" rx="8" fill="#1a2a38" stroke="#556b2f" stroke-width="2"/>
<text x="554" y="326" text-anchor="middle" fill="#e8d5b0" font-size="12">DSM / DBaaS</text>
<rect x="667" y="70" width="190" height="44" rx="8" fill="#8b3a3a"/>
<text x="762" y="98" text-anchor="middle" fill="#fff" font-size="15" font-weight="700">Protect</text>
<rect x="667" y="130" width="190" height="46" rx="8" fill="#1a2a38" stroke="#8b3a3a" stroke-width="2"/>
<text x="762" y="158" text-anchor="middle" fill="#e8d5b0" font-size="12">Live Recovery DR</text>
<rect x="667" y="186" width="190" height="46" rx="8" fill="#1a2a38" stroke="#8b3a3a" stroke-width="2"/>
<text x="762" y="214" text-anchor="middle" fill="#e8d5b0" font-size="12">Cyber Recovery</text>
<rect x="667" y="242" width="190" height="46" rx="8" fill="#1a2a38" stroke="#8b3a3a" stroke-width="2"/>
<text x="762" y="270" text-anchor="middle" fill="#e8d5b0" font-size="12">vSAN DP</text>
<rect x="667" y="298" width="190" height="46" rx="8" fill="#1a2a38" stroke="#8b3a3a" stroke-width="2"/>
<text x="762" y="326" text-anchor="middle" fill="#e8d5b0" font-size="12">DFW / vDefend</text>
</svg>