<svg xmlns="http://www.w3.org/2000/svg" viewBox="0 0 900 500" font-family="Inter, Arial, sans-serif">
<rect width="900" height="500" rx="18" fill="#0f1a24"/>
<text x="450" y="42" text-anchor="middle" fill="#e8d5b0" font-size="22" font-weight="700">5 سِمات أَساسيّة — السَّحابة الخاصّة الحَديثة</text>
<circle cx="450" cy="120" r="68" fill="#1a2a38" stroke="#0d7377" stroke-width="3"/>
<text x="450" y="102" text-anchor="middle" font-size="28">🔄</text>
<text x="450" y="128" text-anchor="middle" fill="#fff" font-size="14" font-weight="700">Automated</text>
<text x="450" y="148" text-anchor="middle" fill="#e8d5b0" font-size="12">أَتمَتة كامِلة</text>
<line x1="450" y1="290" x2="450" y2="120" stroke="#0d7377" stroke-width="1.5" opacity="0.3"/>
<circle cx="612" cy="237" r="68" fill="#1a2a38" stroke="#b8860b" stroke-width="3"/>
<text x="612" y="219" text-anchor="middle" font-size="28">⚡</text>
<text x="612" y="245" text-anchor="middle" fill="#fff" font-size="14" font-weight="700">On-Demand</text>
<text x="612" y="265" text-anchor="middle" fill="#e8d5b0" font-size="12">تَزويد ذاتي</text>
<line x1="450" y1="290" x2="612" y2="237" stroke="#b8860b" stroke-width="1.5" opacity="0.3"/>
<circle cx="550" cy="428" r="68" fill="#1a2a38" stroke="#556b2f" stroke-width="3"/>
<text x="550" y="410" text-anchor="middle" font-size="28">📈</text>
<text x="550" y="436" text-anchor="middle" fill="#fff" font-size="14" font-weight="700">Elastic</text>
<text x="550" y="456" text-anchor="middle" fill="#e8d5b0" font-size="12">تَوَسُّع مَرِن</text>
<line x1="450" y1="290" x2="550" y2="428" stroke="#556b2f" stroke-width="1.5" opacity="0.3"/>
<circle cx="350" cy="428" r="68" fill="#1a2a38" stroke="#8b3a3a" stroke-width="3"/>
<text x="350" y="410" text-anchor="middle" font-size="28">🔒</text>
<text x="350" y="436" text-anchor="middle" fill="#fff" font-size="14" font-weight="700">Secure</text>
<text x="350" y="456" text-anchor="middle" fill="#e8d5b0" font-size="12">أَمان مُدمَج</text>
<line x1="450" y1="290" x2="350" y2="428" stroke="#8b3a3a" stroke-width="1.5" opacity="0.3"/>
<circle cx="288" cy="237" r="68" fill="#1a2a38" stroke="#6b3a8b" stroke-width="3"/>
<text x="288" y="219" text-anchor="middle" font-size="28">🛡️</text>
<text x="288" y="245" text-anchor="middle" fill="#fff" font-size="14" font-weight="700">Resilient</text>
<text x="288" y="265" text-anchor="middle" fill="#e8d5b0" font-size="12">مُرونة تَشغيليّة</text>
<line x1="450" y1="290" x2="288" y2="237" stroke="#6b3a8b" stroke-width="1.5" opacity="0.3"/>
<circle cx="450" cy="290" r="45" fill="#0d7377" opacity="0.9"/>
<text x="450" y="284" text-anchor="middle" fill="#fff" font-size="14" font-weight="700">Modern</text>
<text x="450" y="304" text-anchor="middle" fill="#e8d5b0" font-size="13">Private Cloud</text>
</svg>