<svg xmlns="http://www.w3.org/2000/svg" viewBox="0 0 700 700" font-family="Inter, Arial, sans-serif">
<rect width="700" height="700" rx="18" fill="#0f1a24"/>
<text x="350" y="45" text-anchor="middle" fill="#e8d5b0" font-size="22" font-weight="700">TOGAF ADM Cycle</text>
<circle cx="350" cy="360" r="65" fill="#1a2a38" stroke="#0d7377" stroke-width="3"/>
<text x="350" y="352" text-anchor="middle" fill="#e8d5b0" font-size="14" font-weight="700">Requirements</text>
<text x="350" y="372" text-anchor="middle" fill="#e8d5b0" font-size="14" font-weight="700">Management</text>
<circle cx="350" cy="130" r="48" fill="#8b3a3a" opacity="0.85"/>
<text x="350" y="134" text-anchor="middle" fill="#fff" font-size="11" font-weight="700">Preliminary</text>
<circle cx="498" cy="184" r="48" fill="#b8860b" opacity="0.85"/>
<text x="498" y="178" text-anchor="middle" fill="#fff" font-size="10" font-weight="700">A</text>
<text x="498" y="194" text-anchor="middle" fill="#e8d5b0" font-size="11">Vision</text>
<circle cx="577" cy="320" r="48" fill="#0d7377" opacity="0.85"/>
<text x="577" y="314" text-anchor="middle" fill="#fff" font-size="10" font-weight="700">B</text>
<text x="577" y="330" text-anchor="middle" fill="#e8d5b0" font-size="11">Business</text>
<circle cx="549" cy="475" r="48" fill="#556b2f" opacity="0.85"/>
<text x="549" y="469" text-anchor="middle" fill="#fff" font-size="10" font-weight="700">C</text>
<text x="549" y="485" text-anchor="middle" fill="#e8d5b0" font-size="11">Info Sys</text>
<circle cx="429" cy="576" r="48" fill="#6b3a8b" opacity="0.85"/>
<text x="429" y="570" text-anchor="middle" fill="#fff" font-size="10" font-weight="700">D</text>
<text x="429" y="586" text-anchor="middle" fill="#e8d5b0" font-size="11">Technology</text>
<circle cx="271" cy="576" r="48" fill="#8b3a3a" opacity="0.85"/>
<text x="271" y="570" text-anchor="middle" fill="#fff" font-size="10" font-weight="700">E</text>
<text x="271" y="586" text-anchor="middle" fill="#e8d5b0" font-size="11">Opportunities</text>
<circle cx="151" cy="475" r="48" fill="#b8860b" opacity="0.85"/>
<text x="151" y="469" text-anchor="middle" fill="#fff" font-size="10" font-weight="700">F</text>
<text x="151" y="485" text-anchor="middle" fill="#e8d5b0" font-size="11">Migration</text>
<circle cx="123" cy="320" r="48" fill="#0d7377" opacity="0.85"/>
<text x="123" y="314" text-anchor="middle" fill="#fff" font-size="10" font-weight="700">G</text>
<text x="123" y="330" text-anchor="middle" fill="#e8d5b0" font-size="11">Governance</text>
<circle cx="202" cy="184" r="48" fill="#556b2f" opacity="0.85"/>
<text x="202" y="178" text-anchor="middle" fill="#fff" font-size="10" font-weight="700">H</text>
<text x="202" y="194" text-anchor="middle" fill="#e8d5b0" font-size="11">Change</text>
</svg>